<svg xmlns="http://www.w3.org/2000/svg" viewBox="0 0 32.59 40.42"><g id="Livello_2" data-name="Livello 2"><g id="Livello_3" data-name="Livello 3"><path d="M5.79,3.09A12.45,12.45,0,0,1,9.93.28h0A16.89,16.89,0,0,0,6.82,0H.4V12.4H2.12a14.82,14.82,0,0,1,1-5A12.4,12.4,0,0,1,5.79,3.09"/><path d="M15.22,6.18a5.81,5.81,0,0,0-.72-3,5.19,5.19,0,0,0-1.88-1.9A8.1,8.1,0,0,0,11.19.6a10.47,10.47,0,0,0-1,.38,11.56,11.56,0,0,0-3.9,2.74A12.57,12.57,0,0,0,3.8,7.82a14.06,14.06,0,0,0-.88,4.58H7.26a9.36,9.36,0,0,0,5.92-1.63,5.55,5.55,0,0,0,2-4.59"/><path d="M2.92,13.15a14.3,14.3,0,0,0,.87,4.75A12.25,12.25,0,0,0,6.28,22a11.79,11.79,0,0,0,3.89,2.75,12.42,12.42,0,0,0,4.34,1L7,13.15Z"/><path d="M9.93,25.45a12.34,12.34,0,0,1-6.85-7.14,15,15,0,0,1-1-5.16H.4v14H7.71a20.94,20.94,0,0,0,5.7-.76,13.19,13.19,0,0,1-3.48-.9"/><path d="M21.57,7.39a11.39,11.39,0,0,0-3.19-4.25A12.93,12.93,0,0,0,13.6.68L13.28.59a6.14,6.14,0,0,1,2,2.1,6.8,6.8,0,0,1,.8,3.49,6.46,6.46,0,0,1-.76,3.29,6.25,6.25,0,0,1-1.94,2.11,7.9,7.9,0,0,1-2.63,1.17,11.68,11.68,0,0,1-2.83.36l7.51,12.51a12.87,12.87,0,0,0,2.94-1.8,11.48,11.48,0,0,0,3.19-4.23,14.84,14.84,0,0,0,1.15-6.09,15,15,0,0,0-1.15-6.11"/><path d="M.56,30.23l0,2.06h.79a.83.83,0,0,0,.88-.57l.06-.42v0a1,1,0,0,0-.49-.95,2.2,2.2,0,0,0-1.26-.09m-.14-.35h.82c.81,0,1.33.28,1.53.82a1.13,1.13,0,0,1,.08.36v.18c-.12.42-.21.64-.27.64a3.75,3.75,0,0,1-.61.48A8.15,8.15,0,0,0,3.24,34.1l.68.73,0,0h0a1.63,1.63,0,0,1-1.39-.66,11.28,11.28,0,0,1-1-1.45.7.7,0,0,0-.52-.15c-.25,0-.37,0-.37.07l0,2,0,0c-.35,0-.52,0-.52-.06l0-4.71v0Z"/><polygon points="4.26 29.91 4.85 29.91 4.89 29.95 4.89 31.62 4.88 34.74 4.85 34.76 4.26 34.76 4.22 34.72 4.22 29.95 4.26 29.91"/><path d="M8.7,29.92a2.09,2.09,0,0,1,1,.33.61.61,0,0,1,0,.22v.71h0A1.64,1.64,0,0,0,9,30.37a2,2,0,0,0-.81-.25H8a1.65,1.65,0,0,0-.85.35,2.13,2.13,0,0,0-.62,1.62,2.79,2.79,0,0,0,.6,1.77,1.76,1.76,0,0,0,.78.5,2.36,2.36,0,0,0,1.12,0,1.47,1.47,0,0,0,.72-.61h0v.53a2.53,2.53,0,0,1-1.31.46H8.06a2.09,2.09,0,0,1-1.71-.93,2.87,2.87,0,0,1-.41-1.53,2.24,2.24,0,0,1,1.4-2.17,2.69,2.69,0,0,1,1.36-.17"/><path d="M13.22,29.92a2,2,0,0,1,1,.33.43.43,0,0,1,0,.22v.71h0a1.6,1.6,0,0,0-.75-.81,2,2,0,0,0-.8-.25h-.17a1.68,1.68,0,0,0-.86.35,2.13,2.13,0,0,0-.61,1.62,2.79,2.79,0,0,0,.6,1.77,1.79,1.79,0,0,0,.77.5,2.36,2.36,0,0,0,1.12,0,1.39,1.39,0,0,0,.72-.61h0v.53a2.59,2.59,0,0,1-1.32.46h-.38a2.06,2.06,0,0,1-1.7-.93,2.78,2.78,0,0,1-.41-1.53,2.23,2.23,0,0,1,1.4-2.17,2.66,2.66,0,0,1,1.35-.17"/><path d="M16.83,30.73l-.58,1.71,0,0h1.14v0h0a14.85,14.85,0,0,0-.6-1.7m0-.82h.34c.05.05.35.88.92,2.48l.85,2.33h-.67a9.81,9.81,0,0,1-.58-1.56c-.07-.2-.13-.31-.16-.32H16.15a8.38,8.38,0,0,0-.58,1.6c-.06.18-.11.28-.13.28H15v0c.49-1.2,1-2.66,1.66-4.41.09-.25.14-.38.17-.38"/><path d="M20,30.23l0,2.06h.79a.83.83,0,0,0,.88-.57l.06-.42v0a1,1,0,0,0-.49-.95A2.2,2.2,0,0,0,20,30.23m-.14-.35h.82c.82,0,1.33.28,1.53.82a1.13,1.13,0,0,1,.08.36v.18c-.12.42-.21.64-.27.64a3.75,3.75,0,0,1-.61.48,8.15,8.15,0,0,0,1.27,1.74l.68.73,0,0h-.05a1.63,1.63,0,0,1-1.39-.66,11.28,11.28,0,0,1-1-1.45.7.7,0,0,0-.52-.15c-.25,0-.37,0-.37.07l0,2,0,0c-.34,0-.52,0-.52-.06l0-4.71v0Z"/><path d="M23.94,30.33v2.9l0,1c0,.08.06.14.19.19l1,0a2,2,0,0,0,.74-.19,2.14,2.14,0,0,0,.86-1.91,2,2,0,0,0-1.2-2,3.12,3.12,0,0,0-.77-.15h-.58c-.15,0-.23.06-.23.19M25,29.84a2.36,2.36,0,0,1,1.78.73,2.27,2.27,0,0,1,.54,1.51v.18a2.32,2.32,0,0,1-1.53,2.25,3,3,0,0,1-1.09.21h-.48l-.94,0h0V29.9l1.48,0h0Z"/><path d="M28.49,32.09a2.19,2.19,0,0,0,1.23,2.17,2.16,2.16,0,0,0,.74.15,1.8,1.8,0,0,0,1.1-.44A2.21,2.21,0,0,0,32,32.46h0a2.15,2.15,0,0,0-1.23-2.16,2.05,2.05,0,0,0-.69-.15h-.17a2.1,2.1,0,0,0-1.08.62,2.38,2.38,0,0,0-.35,1.33m1.77-2.17h.24a2,2,0,0,1,1.85,1.22,3.05,3.05,0,0,1,.24,1.16,2.39,2.39,0,0,1-1.15,2.08,2.94,2.94,0,0,1-1.35.34,2.05,2.05,0,0,1-1.79-1.16,3,3,0,0,1-.3-1.27,2.26,2.26,0,0,1,1.46-2.21,2.55,2.55,0,0,1,.8-.16"/><path d="M.67,36v2.9l0,1c0,.08.06.14.19.19l1,0a1.88,1.88,0,0,0,.73-.19A2.13,2.13,0,0,0,3.45,38a2,2,0,0,0-1.2-2,3.2,3.2,0,0,0-.77-.15H.9c-.16,0-.23.06-.23.19m1.07-.49a2.32,2.32,0,0,1,1.78.73,2.27,2.27,0,0,1,.54,1.51v.17a2.32,2.32,0,0,1-1.53,2.26,3,3,0,0,1-1.09.21H1l-.94,0H0v-4.8l1.48,0h0Z"/><polygon points="4.76 35.54 4.72 35.57 4.72 40.34 4.76 40.38 7.51 40.38 7.55 40.34 7.55 40.01 7.18 40 5.43 40 5.41 38.33 5.41 38.11 5.46 38.06 7.16 38.06 7.2 38.02 7.2 37.72 7.16 37.68 5.43 37.68 5.41 37.59 5.41 36.41 5.36 35.88 7.47 35.9 7.51 35.87 7.51 35.57 7.47 35.54 4.76 35.54"/><path d="M13,35.58a2.09,2.09,0,0,1,1,.33.58.58,0,0,1,0,.21v.72h0A1.64,1.64,0,0,0,13.3,36a2,2,0,0,0-.81-.25h-.17a1.71,1.71,0,0,0-.85.34,2.17,2.17,0,0,0-.62,1.63,2.79,2.79,0,0,0,.6,1.77,1.79,1.79,0,0,0,.77.5,2.4,2.4,0,0,0,1.13,0,1.46,1.46,0,0,0,.71-.61h0v.53a2.56,2.56,0,0,1-1.31.46h-.38a2.09,2.09,0,0,1-1.71-.93,2.88,2.88,0,0,1-.41-1.54,2.26,2.26,0,0,1,1.4-2.17A2.8,2.8,0,0,1,13,35.58"/><polygon points="15.21 35.57 15.16 35.61 15.16 40.38 15.21 40.42 15.8 40.42 15.82 40.4 15.84 37.28 15.84 35.61 15.8 35.57 15.21 35.57"/><path d="M17.44,35.56c.17.26.7.93,1.57,2,.63.83,1.1,1.41,1.41,1.75v-.94l0-2.79,0,0h.4l0,0,0,3.41v1.33l0,0h-.14l-.09,0-.11,0h-.14l-2.93-3.8h0v3.77h-.38l0,0,.05-4.71,0,0Z"/><path d="M25.61,35.57l0,0V36H23.81v4.41l0,0h-.54l0,0L23.26,36c0-.08,0-.12-.08-.12H21.54v0h0v-.31Z"/><polygon points="26.53 35.57 26.49 35.61 26.49 40.38 26.53 40.42 27.12 40.42 27.14 40.4 27.16 37.28 27.16 35.61 27.12 35.57 26.53 35.57"/></g></g></svg>