<svg xmlns="http://www.w3.org/2000/svg" viewBox="0 0 68.83 85.37"><defs><style>.cls-1{fill:#fff;}</style></defs><g id="Livello_2" data-name="Livello 2"><g id="Livello_3" data-name="Livello 3"><path class="cls-1" d="M12.22,6.52A26.42,26.42,0,0,1,21,.59h0A36.66,36.66,0,0,0,14.4,0H.85V26.18H4.48a31.51,31.51,0,0,1,2-10.55,26.62,26.62,0,0,1,5.72-9.11"/><path class="cls-1" d="M32.14,13.05a12.37,12.37,0,0,0-1.51-6.4,11.14,11.14,0,0,0-4-4,15.43,15.43,0,0,0-3-1.36c-.7.23-1.4.49-2.07.78a24.58,24.58,0,0,0-8.22,5.81A26.14,26.14,0,0,0,8,16.51a29.42,29.42,0,0,0-1.87,9.67h9.16q8.19,0,12.5-3.43t4.31-9.7"/><path class="cls-1" d="M6.17,27.77A29.8,29.8,0,0,0,8,37.8a25.86,25.86,0,0,0,5.26,8.65,24.7,24.7,0,0,0,8.22,5.8,25.7,25.7,0,0,0,9.17,2.07L14.74,27.77Z"/><path class="cls-1" d="M21,53.75A26.05,26.05,0,0,1,6.5,38.68a31.72,31.72,0,0,1-2-10.91H.85V57.26H16.29a44,44,0,0,0,12-1.6A27.15,27.15,0,0,1,21,53.75"/><path class="cls-1" d="M45.55,15.6a24.12,24.12,0,0,0-6.72-9,27.73,27.73,0,0,0-10.09-5.2l-.69-.18a12.79,12.79,0,0,1,4.26,4.44A14.45,14.45,0,0,1,34,13.05,13.73,13.73,0,0,1,32.39,20a13.5,13.5,0,0,1-4.1,4.48,17,17,0,0,1-5.56,2.46,24.57,24.57,0,0,1-6,.76L32.62,54.12a26.81,26.81,0,0,0,6.21-3.81,24.21,24.21,0,0,0,6.72-8.93A31,31,0,0,0,48,28.51,31.31,31.31,0,0,0,45.55,15.6"/><path class="cls-1" d="M1.19,63.86l0,4.35H2.9A1.75,1.75,0,0,0,4.75,67l.12-.89v-.07a2,2,0,0,0-1-2,4.7,4.7,0,0,0-2.66-.18m-.31-.74H2.61c1.73,0,2.81.58,3.25,1.73a2.47,2.47,0,0,1,.15.76V66c-.24.9-.43,1.36-.57,1.36a7.41,7.41,0,0,1-1.28,1q0,.4,2.68,3.66l1.45,1.55,0,0H8.13A3.42,3.42,0,0,1,5.2,72.23a23.31,23.31,0,0,1-2.14-3.07A1.43,1.43,0,0,0,2,68.84c-.53,0-.79.06-.79.14l0,4.25,0,0c-.74,0-1.11,0-1.11-.11l0-10,0,0Z"/><polygon class="cls-1" points="9.01 63.19 10.25 63.19 10.34 63.26 10.34 66.79 10.3 73.38 10.25 73.42 9.01 73.42 8.91 73.35 8.91 63.26 9.01 63.19"/><path class="cls-1" d="M18.37,63.21a4.43,4.43,0,0,1,2.16.69,1.12,1.12,0,0,1,.07.45v1.51h-.07A3.38,3.38,0,0,0,19,64.15a4.21,4.21,0,0,0-1.71-.53h-.35a3.63,3.63,0,0,0-1.81.73,4.54,4.54,0,0,0-1.3,3.43A5.93,5.93,0,0,0,15,71.52a3.82,3.82,0,0,0,1.64,1.07,5.05,5.05,0,0,0,2.37-.06,3,3,0,0,0,1.51-1.29h0v1.14a5.54,5.54,0,0,1-2.78,1H17a4.39,4.39,0,0,1-3.61-2,6.05,6.05,0,0,1-.87-3.25,4.76,4.76,0,0,1,3-4.58,5.6,5.6,0,0,1,2.86-.34"/><path class="cls-1" d="M27.93,63.21a4.43,4.43,0,0,1,2.16.69,1.12,1.12,0,0,1,.07.45v1.51h-.07a3.4,3.4,0,0,0-1.59-1.71,4.13,4.13,0,0,0-1.7-.53h-.36a3.64,3.64,0,0,0-1.8.73,4.54,4.54,0,0,0-1.3,3.43,5.93,5.93,0,0,0,1.26,3.74,3.76,3.76,0,0,0,1.64,1.07,5.05,5.05,0,0,0,2.37-.06,3,3,0,0,0,1.51-1.29h0v1.14a5.54,5.54,0,0,1-2.78,1h-.8a4.39,4.39,0,0,1-3.6-2,6.05,6.05,0,0,1-.87-3.25,4.76,4.76,0,0,1,3-4.58,5.59,5.59,0,0,1,2.86-.34"/><path class="cls-1" d="M35.55,64.91l-1.22,3.62.05,0h2.4v-.07h0a28.11,28.11,0,0,0-1.27-3.58m0-1.74h.73q.14.16,1.94,5.24L40,73.33l0,0,0,0H38.57a19.93,19.93,0,0,1-1.22-3.28c-.16-.44-.28-.66-.35-.67H34.11a16.31,16.31,0,0,0-1.22,3.36c-.14.39-.23.59-.27.59h-.95v0q1.56-3.78,3.5-9.3c.18-.55.3-.82.35-.82"/><path class="cls-1" d="M42.21,63.86l0,4.35h1.67A1.75,1.75,0,0,0,45.77,67l.12-.89v-.07a2,2,0,0,0-1-2,4.7,4.7,0,0,0-2.66-.18m-.31-.74h1.73c1.73,0,2.81.58,3.25,1.73a2.47,2.47,0,0,1,.15.76V66c-.24.9-.43,1.36-.57,1.36a7.41,7.41,0,0,1-1.28,1q0,.4,2.68,3.66l1.45,1.55,0,0h-.12a3.42,3.42,0,0,1-2.93-1.38,23.31,23.31,0,0,1-2.14-3.07A1.43,1.43,0,0,0,43,68.84c-.53,0-.79.06-.79.14l0,4.25,0,0c-.74,0-1.11,0-1.11-.11l0-10,0,0Z"/><path class="cls-1" d="M50.56,64.06v6.13l0,2c0,.17.14.31.42.41l2,0a3.77,3.77,0,0,0,1.55-.41,4.46,4.46,0,0,0,1.82-4A4.17,4.17,0,0,0,53.9,64a6.29,6.29,0,0,0-1.63-.33H51.06c-.33,0-.5.13-.5.4m2.27-1a4.91,4.91,0,0,1,3.75,1.53,4.82,4.82,0,0,1,1.14,3.19v.37A4.9,4.9,0,0,1,54.5,72.9a6.44,6.44,0,0,1-2.31.44h-1l-2,0,0,0V63.15l3.11-.07h.07Z"/><path class="cls-1" d="M60.17,67.78a4.63,4.63,0,0,0,2.6,4.59,4.73,4.73,0,0,0,1.57.31,3.77,3.77,0,0,0,2.32-.93,4.65,4.65,0,0,0,1-3.18v0q0-3.36-2.6-4.56a4.61,4.61,0,0,0-1.47-.31H63.2A4.29,4.29,0,0,0,60.92,65a5,5,0,0,0-.75,2.8m3.74-4.59h.5a4.18,4.18,0,0,1,3.92,2.59,6.39,6.39,0,0,1,.5,2.45,5,5,0,0,1-2.42,4.38,6.23,6.23,0,0,1-2.86.73,4.32,4.32,0,0,1-3.77-2.45,6.22,6.22,0,0,1-.65-2.7,4.78,4.78,0,0,1,3.1-4.66,5.71,5.71,0,0,1,1.68-.34"/><path class="cls-1" d="M1.41,76v6.13l0,2c0,.17.14.31.41.41l2,0a3.82,3.82,0,0,0,1.56-.4,4.49,4.49,0,0,0,1.82-4,4.18,4.18,0,0,0-2.54-4.26,6.24,6.24,0,0,0-1.62-.33H1.9c-.33,0-.49.14-.49.4m2.27-1a4.92,4.92,0,0,1,3.75,1.54,4.79,4.79,0,0,1,1.14,3.18v.38a4.91,4.91,0,0,1-3.22,4.76A6.49,6.49,0,0,1,3,85.29H2l-2,0,0,0V75.1L3.12,75h.07Z"/><polygon class="cls-1" points="10.06 75.06 9.98 75.14 9.98 85.21 10.06 85.29 15.87 85.29 15.94 85.21 15.94 84.5 15.16 84.5 11.46 84.5 11.42 80.95 11.42 80.5 11.54 80.39 15.13 80.39 15.2 80.31 15.2 79.67 15.13 79.59 11.46 79.59 11.42 79.4 11.42 76.91 11.32 75.78 15.79 75.83 15.87 75.76 15.87 75.14 15.79 75.06 10.06 75.06"/><path class="cls-1" d="M27.51,75.16a4.34,4.34,0,0,1,2.16.7,1,1,0,0,1,.08.45v1.5h-.08a3.42,3.42,0,0,0-1.58-1.71,4.39,4.39,0,0,0-1.7-.53H26a3.66,3.66,0,0,0-1.81.74,4.57,4.57,0,0,0-1.3,3.42,5.93,5.93,0,0,0,1.26,3.74,3.73,3.73,0,0,0,1.64,1.07,5.17,5.17,0,0,0,2.37-.05,3,3,0,0,0,1.52-1.29h0v1.13a5.57,5.57,0,0,1-2.78,1h-.8a4.39,4.39,0,0,1-3.61-2,6,6,0,0,1-.87-3.24,4.76,4.76,0,0,1,3-4.59,5.55,5.55,0,0,1,2.85-.34"/><polygon class="cls-1" points="32.12 75.14 32.03 75.21 32.03 85.3 32.12 85.37 33.37 85.37 33.41 85.33 33.46 78.75 33.46 75.21 33.37 75.14 32.12 75.14"/><path class="cls-1" d="M36.84,75.11c.36.55,1.47,2,3.31,4.23q2,2.63,3,3.69v-2l-.08-5.9,0,0h.83l.08.07-.08,7.19v2.81l-.07.07h-.3l-.2,0-.22,0h-.3l-6.19-8h-.07v7.91l0,0h-.8l-.07-.07.11-10,0,0Z"/><path class="cls-1" d="M54.1,75.13l.07.08,0,.72H50.3v9.3l-.07.07H49.08L49,85.22l.11-9.13c0-.17,0-.25-.15-.26H45.5l0,0h0v-.66Z"/><polygon class="cls-1" points="56.04 75.14 55.95 75.21 55.95 85.3 56.04 85.37 57.29 85.37 57.34 85.33 57.38 78.75 57.38 75.21 57.29 75.14 56.04 75.14"/></g></g></svg>